#N canvas 0 25 548 526 10;
#X obj 236 21 noise~;
#X obj 231 -74 vline~;
#X obj 230 -47 *~;
#X obj 216 87 *~;
#X obj 292 126 *~;
#X obj 217 126 *~ 0.5;
#X obj 236 50 lop~ 1000;
#X obj 256 87 hip~ 950;
#X msg 230 -94 1 0 0 \, 0 50 0;
#X obj 456 46 switch~;
#X obj 456 26 tgl 15 0 empty empty empty 0 -6 0 10 -262144 -1 -1 0
1;
#X msg 456 -17 1;
#X msg 482 -17 0;
#X floatatom 482 -57 5 0 0 0 - - -, f 5;
#X obj 482 -39 sel 0;
#X obj 167 -197 t b b b;
#X msg 482 -101 1 0 \, 0 75;
#X obj 482 -79 line 1 75;
#X obj 194 286 dac~;
#X obj 167 -219 bng 15 250 50 0 empty empty empty 17 7 0 10 -262144
-1 -1;
#X msg 186 -133 bang;
#X obj 203 253 *~;
#X obj 329 98 vsl 15 128 0 1 0 0 empty empty empty 0 -8 0 10 -262144
-1 -1 12700 1;
#X text 347 156 volume;
#X obj 329 56 loadbang;
#X msg 329 75 1;
#X text 199 -221 hit it;
#X text 399 59 audio computation on/off;
#X text 172 -111 envelopes;
#X text 499 289 sg 2008;
#X connect 0 0 6 0;
#X connect 1 0 2 0;
#X connect 1 0 2 1;
#X connect 2 0 3 1;
#X connect 3 0 5 0;
#X connect 4 0 21 0;
#X connect 5 0 21 0;
#X connect 6 0 3 0;
#X connect 6 0 7 0;
#X connect 7 0 4 0;
#X connect 8 0 1 0;
#X connect 10 0 9 0;
#X connect 11 0 10 0;
#X connect 12 0 10 0;
#X connect 13 0 14 0;
#X connect 14 0 12 0;
#X connect 15 0 16 0;
#X connect 15 1 20 0;
#X connect 15 2 11 0;
#X connect 16 0 17 0;
#X connect 17 0 13 0;
#X connect 19 0 15 0;
#X connect 20 0 8 0;
#X connect 21 0 18 0;
#X connect 21 0 18 1;
#X connect 22 0 21 1;
#X connect 24 0 25 0;
#X connect 25 0 22 0;
